<?xml version="1.0" encoding="UTF-8"?>
<!DOCTYPE svg PUBLIC "-//W3C//DTD SVG 1.1//EN" "http://www.w3.org/Graphics/SVG/1.1/DTD/svg11.dtd">
<!-- Creator: CorelDRAW 2018 (64 Bit Versão de avaliação) -->
<svg xmlns="http://www.w3.org/2000/svg" xml:space="preserve" width="250mm" height="60mm" version="1.1" style="shape-rendering:geometricPrecision; text-rendering:geometricPrecision; image-rendering:optimizeQuality; fill-rule:evenodd; clip-rule:evenodd"
viewBox="0 0 25000 6000"
 xmlns:xlink="http://www.w3.org/1999/xlink">
 <defs>
  <style type="text/css">
   <![CDATA[
    .fil0 {fill:black}
    .fil1 {fill:#030303}
   ]]>
  </style>
 </defs>
 <g id="Camada_x0020_1">
  <metadata id="CorelCorpID_0Corel-Layer"/>
  <g id="_1822499898080">
   <path class="fil0" d="M2555.33 3261.44c-168.93,-118.93 -1059.98,-1087.42 -1216.93,-1181.4 -74.2,51.99 -77.79,45.6 -140.07,110.77l-834.01 832.74c-64.1,53.12 -90.09,104.57 -130.83,165.92 153.87,250.66 893.61,927.55 1147.05,1181 210.7,210.69 994.38,1047.88 1183.86,1144.18 67.3,-44.03 197.94,-166.51 257.17,-219.01 94.17,-83.47 161.58,-186.27 245.57,-257.08 86.92,-73.28 160.61,-170.15 238.43,-237.76l373.71 -367.03c150.75,-122.22 1103.71,-1163.72 1341.66,-1356.75l725.79 -729.24c154.32,-185.35 563.48,-511.03 734.61,-746.87 -91.44,-138.26 -980.9,-1024.4 -1115,-1115.57 -259.66,216.84 -463.83,457.41 -699.95,676.28l-1036.87 1053.07c-51.38,53.24 -118.49,124.4 -173.48,170.44l-853.21 840.56c-4.38,3.49 -11.32,9.02 -15.33,12.15 -5.43,4.22 -24.74,18.86 -32.17,23.6z"/>
   <path class="fil1" d="M13358.05 3788.27c-5.79,-30.77 29.63,-244.28 37.66,-272.99 19.37,-69.24 78.02,-146.85 120.38,-197.09 81.3,-96.42 294.01,-231.8 424.98,-238.5 350.49,-17.95 662.89,187.46 662.32,636.01 -0.99,787.25 -694.4,839.51 -1038.35,533.76 -125.88,-111.9 -177.51,-304.46 -206.99,-461.19zm1259.26 -1192.83c-105.33,18.46 -666.55,-391.15 -1357.58,16.66 -782.53,461.82 -851.64,1789.26 16.85,2296.18 320.56,187.11 707.6,233.44 1045.69,89.11 89.89,-38.38 220.59,-129.12 302.47,-140.67l114.52 149.32c119.89,15.02 480.23,21.77 586.2,-10.75 33.42,-108.91 34.24,-3565.73 0.82,-3674.64l-708.97 0 0 1274.79z"/>
   <path class="fil1" d="M9707.26 3900.9c-30.78,-162.26 27.87,-378.37 104.1,-504.36 364.84,-602.99 954.18,-229.13 1028.27,218.54 155.03,936.69 -976.4,1108.27 -1132.37,285.82zm287.12 -1425.53l-238.25 72.28c-102.68,40.61 -117.11,47.59 -204.03,113.43 -450.7,341.4 -654.73,786.46 -548.73,1361.69 127.48,691.83 800.54,1170.29 1540.17,1032.01 1031.63,-192.87 1468.55,-1638.06 505.68,-2363.58 -149,-112.26 -267.62,-160.75 -441.35,-220.02 -110.02,-37.53 -309.84,-28.06 -452.28,-27.12 -13.84,0.09 -66.86,0.48 -77.88,2.11 -130,19.13 -29.71,12.83 -83.33,29.2z"/>
   <path class="fil1" d="M16162.28 3795.08l45.8 -245.21c68.36,-285.09 506.3,-728.8 927.08,-277.94 245.29,262.83 254.2,614.2 60.95,922.05 -223.62,356.22 -811.47,304.45 -975.6,-139.68 -2.4,-6.5 -58.23,-258.33 -58.23,-259.22zm313.58 -1319.71c-122.52,37.44 -244.64,32.92 -450.44,177.55 -132.04,92.8 -238.17,199.36 -332.38,329 -704.81,969.79 180.09,2331.2 1326.72,2067.46 1297.98,-298.54 1432.02,-2131.24 66.35,-2574.96 -118.97,-38.66 -159.66,-29.23 -288.75,-28.73 -212.81,0.81 -160.46,-19.53 -321.5,29.68z"/>
   <path class="fil1" d="M21626.47 4277.24c-99.34,15.38 -438.41,183.09 -490.75,260.62 93.4,327.2 532.55,512.96 846.07,527.66 1015.08,47.59 1391.71,-933.84 799.42,-1381.44 -310.77,-234.84 -952.64,-182.92 -932.13,-440.45 52.88,-113.49 119.77,-203.38 258.95,-185.61 183.21,23.4 187.97,107.7 297.23,183.04 109.51,-12.82 430.81,-126.76 526.1,-192.27 -189.31,-824.6 -1766.73,-828.06 -1770.18,216.88 -1.99,602.45 430.53,682.35 831.12,784.04 658.95,167.28 241.39,491.08 -105.46,396.51 -110.53,-30.13 -172.47,-117.97 -260.37,-168.98z"/>
   <path class="fil1" d="M7586.37 2494.3c-100.57,68.03 -254.16,97.37 -324.61,178.03 -27.15,106.66 -29.55,341.02 1.54,445.01l319.11 19.72c196.46,403.73 -344.98,1886.61 669.01,1955.14 206.88,13.98 549.97,50.66 722.62,-99.12 36.23,-96.82 33.36,-443.73 2.57,-546.73 -112.49,-33.74 -640.49,157.63 -646.5,-332.33 -1.7,-138.25 -22.99,-906.25 10.07,-971.74l636.54 -11.83c38.28,-141.53 51.24,-528.5 -17.75,-629.66l-622.01 0c-38.89,-213.93 -21.55,-364.51 -38.01,-576.48l-663.46 0c-42.2,74.79 -44.35,168.94 -45.77,255.85 -1.73,106.36 5.01,207.46 -3.35,314.14z"/>
   <path class="fil1" d="M23377.03 2464.86c-118,131.65 -239.16,101.4 -355.68,226.32l-3.76 426.31 330.56 20.26c182.15,316.45 -307.36,1888.37 671.36,1953.54 233.71,15.56 523.74,49.66 735.6,-84.34l4.51 -568.95c-226.04,-37.66 -607.76,149.99 -658.85,-300.99 -14.98,-132.27 -14.31,-877.85 6.65,-994.68l644.14 -9.57c19.68,-117.6 22.65,-514.91 -7.73,-617.65l-636.47 -18.29 -11.5 -572.51 -684.61 0c-13.62,0 -18.42,428.25 -34.22,540.55z"/>
   <polygon class="fil1" points="19275.95,1320.6 19276.32,5032.51 20036.2,5032.51 20036.2,1320.65 "/>
   <polygon class="fil1" points="20238.03,5032.51 20938.06,5032.51 20957.23,2500.79 20238.37,2500.79 "/>
   <path class="fil1" d="M20500.9 1414.13c-199.72,82.34 -361.92,209.37 -298.85,456.07 143.56,561.49 894.31,290.82 765.2,-180.92 -33.24,-121.45 -161.96,-250.86 -297.01,-287.87 -109.64,-30.04 -95.4,-17.77 -169.34,12.72z"/>
  </g>
 </g>
</svg>
